<?xml version="1.0" standalone="no"?>
<!DOCTYPE svg PUBLIC "-//W3C//DTD SVG 20010904//EN"
 "http://www.w3.org/TR/2001/REC-SVG-20010904/DTD/svg10.dtd">
<svg version="1.0" xmlns="http://www.w3.org/2000/svg"
 width="1024.000000pt" height="1024.000000pt" viewBox="0 0 1024.000000 1024.000000"
 preserveAspectRatio="xMidYMid meet">

<g transform="translate(0.000000,1024.000000) scale(0.100000,-0.100000)"
fill="#000000" stroke="none">
<path d="M5130 7114 c-19 -2 -78 -9 -130 -15 -438 -50 -898 -262 -1375 -635
-219 -171 -523 -442 -576 -514 -66 -89 -56 -207 28 -317 14 -18 23 -38 20 -45
-4 -10 -6 -10 -6 0 -1 7 -5 11 -11 7 -5 -3 -8 -11 -6 -18 1 -7 1 -9 -1 -4 -8
13 -25 7 -20 -7 4 -10 0 -12 -16 -8 -20 5 -20 4 -8 -11 11 -15 11 -17 -2 -17
-8 0 -17 -6 -20 -14 -4 -10 1 -12 16 -9 22 5 22 5 -1 -12 -12 -9 -20 -21 -17
-26 4 -5 0 -9 -8 -9 -8 0 -18 -8 -22 -17 -5 -15 -4 -16 6 -5 7 6 17 12 21 12
10 0 11 -34 1 -44 -5 -4 -8 -18 -8 -31 -1 -18 2 -21 11 -14 9 8 11 5 7 -10 -3
-12 -10 -21 -15 -21 -5 0 5 -12 24 -27 51 -43 60 -52 62 -69 1 -9 8 -19 15
-23 7 -5 18 -19 25 -32 7 -13 18 -23 24 -22 6 2 17 -13 23 -32 7 -19 17 -35
22 -35 4 0 5 5 1 12 -4 7 -3 8 5 4 6 -4 9 -12 5 -17 -3 -6 8 -15 25 -22 20 -7
31 -18 31 -30 0 -16 2 -17 15 -7 13 11 15 10 10 -1 -6 -18 4 -33 35 -49 14 -8
20 -15 13 -17 -10 -4 -10 -7 0 -18 15 -17 28 -9 20 12 -5 13 -2 15 11 10 10
-4 20 -7 23 -7 4 0 -2 -9 -12 -20 -10 -11 -15 -23 -12 -27 4 -3 7 -1 7 5 0 7
7 12 15 12 8 0 15 -6 15 -14 0 -16 27 -29 42 -19 6 3 8 1 5 -4 -4 -6 0 -13 8
-17 9 -3 12 -12 8 -22 -5 -13 -3 -16 10 -11 22 8 47 -1 41 -16 -2 -7 5 -18 17
-25 12 -8 18 -9 15 -3 -5 7 -1 8 9 5 9 -4 14 -9 11 -11 -9 -9 23 -35 34 -28 5
3 10 -1 10 -10 0 -11 5 -15 15 -12 8 4 17 2 20 -4 4 -5 11 -6 17 -3 6 4 8 2 5
-4 -4 -5 -17 -8 -30 -6 l-22 5 23 -10 c12 -6 30 -7 40 -4 16 6 16 5 -1 -12
-10 -10 -15 -21 -10 -24 4 -3 12 -11 17 -16 5 -6 6 -1 2 11 -4 14 -2 21 8 21
8 0 13 -9 11 -23 -2 -20 1 -21 23 -13 16 6 29 6 38 -2 7 -6 19 -7 25 -3 8 5 9
3 4 -6 -6 -10 -4 -12 10 -6 15 5 16 4 5 -9 -10 -12 -8 -16 11 -24 28 -10 40
-4 19 9 -12 8 -12 10 -2 10 8 0 16 -9 19 -19 3 -13 10 -18 21 -14 11 5 14 2 9
-10 -4 -12 -2 -14 10 -10 11 4 14 2 9 -5 -4 -7 -3 -12 3 -12 5 0 12 6 14 13 4
9 6 9 6 0 1 -7 8 -10 18 -6 12 5 14 3 8 -7 -6 -10 -4 -12 8 -7 10 3 17 2 17
-2 0 -5 -6 -12 -12 -14 -8 -3 -5 -6 5 -6 10 -1 28 4 40 10 20 9 20 9 5 -4 -25
-20 -22 -29 5 -23 12 3 16 3 10 0 -7 -3 -13 -10 -13 -15 0 -6 4 -7 10 -4 5 3
28 1 50 -6 34 -10 38 -14 27 -27 -6 -9 -7 -13 -1 -9 6 3 26 9 45 12 25 4 30 3
19 -5 -13 -8 -12 -10 3 -10 11 0 28 -10 39 -23 15 -17 18 -18 14 -4 -3 9 -1
17 4 17 5 0 12 -9 15 -20 3 -11 10 -20 15 -20 5 0 6 8 3 18 -6 15 -5 15 10 4
8 -8 13 -21 10 -30 -4 -13 -3 -14 5 -3 7 10 14 10 30 2 11 -6 29 -8 39 -4 15
6 16 5 5 -9 -11 -14 -10 -16 9 -11 15 4 20 2 15 -5 -4 -8 10 -10 48 -8 51 3
54 2 51 -20 -2 -21 0 -22 17 -10 16 12 24 11 51 -2 18 -9 38 -22 45 -29 15
-15 26 -17 18 -4 -3 5 3 11 14 14 11 3 18 1 14 -4 -3 -5 0 -9 5 -9 6 0 11 7
11 16 0 12 5 11 20 -7 14 -17 18 -19 14 -6 -5 14 -2 16 12 11 11 -4 24 -11 30
-16 7 -5 18 -3 27 6 13 13 16 12 25 -9 8 -16 17 -23 27 -19 8 3 13 10 10 14
-3 4 2 10 10 13 10 4 12 1 8 -10 -5 -13 -2 -15 12 -9 11 4 22 2 27 -6 5 -8 11
-9 16 -3 4 6 16 11 27 12 79 10 94 10 90 3 -3 -5 4 -8 15 -7 11 1 20 4 20 8 0
4 10 5 22 1 13 -3 19 -1 15 5 -4 6 14 3 40 -5 41 -14 46 -14 55 1 5 10 14 17
20 17 7 0 6 -5 -2 -15 -8 -10 -9 -15 -2 -15 6 0 16 8 21 18 10 16 10 15 11 -3
0 -11 4 -16 8 -10 4 6 17 10 30 9 18 -1 20 1 11 12 -16 19 -4 18 15 -2 9 -8
16 -11 16 -5 0 5 9 8 20 6 11 -2 19 1 17 8 -1 6 3 11 8 12 6 0 16 4 23 9 7 4
18 3 26 -3 9 -7 18 -6 34 5 13 9 31 12 47 8 16 -4 25 -2 25 5 0 7 11 5 28 -6
15 -9 24 -13 20 -9 -8 10 15 36 32 36 7 0 10 6 7 14 -4 10 0 12 13 9 11 -3 32
4 48 15 15 12 40 24 55 27 15 4 27 12 28 19 0 6 4 2 9 -9 8 -18 9 -18 10 5 1
24 1 24 15 6 15 -20 15 -20 16 0 1 10 1 23 0 27 -1 5 3 6 8 3 14 -9 42 5 34
17 -4 6 0 8 10 4 10 -4 44 8 82 28 69 37 80 41 70 25 -3 -6 1 -7 9 -4 9 3 13
11 9 18 -4 6 2 4 12 -4 17 -14 18 -13 12 3 -3 9 -3 17 2 17 4 0 18 9 30 19 16
14 18 21 9 25 -7 3 -3 3 10 0 16 -4 22 -1 22 10 0 9 5 16 11 16 5 0 7 -4 4
-10 -3 -6 1 -7 9 -4 9 3 16 16 17 28 0 17 2 18 7 4 5 -13 11 -15 22 -8 13 8
13 10 0 10 -10 0 -7 5 8 16 12 8 26 13 31 9 6 -3 25 4 43 15 18 11 28 20 23
20 -6 0 -21 -8 -34 -17 -14 -9 -21 -11 -16 -4 4 7 19 18 34 25 53 24 91 51 87
62 -3 6 7 17 20 23 14 6 23 7 20 2 -3 -5 3 -7 15 -4 16 4 17 8 7 14 -10 7 -9
9 5 9 10 0 15 5 12 10 -3 6 3 10 15 10 13 0 19 4 14 11 -4 7 -1 10 7 7 7 -2
25 6 39 19 14 13 59 47 100 75 41 28 77 54 80 57 3 3 32 26 65 50 256 189 661
560 696 638 31 68 34 120 9 185 -18 50 -37 73 -148 177 -205 192 -447 398
-568 483 -231 163 -318 216 -511 312 -213 106 -425 175 -661 215 -114 19 -367
34 -442 25z m-230 -555 c0 10 3 11 14 2 15 -13 49 -4 40 10 -3 5 -1 9 5 9 5 0
12 -4 15 -8 3 -5 19 -7 35 -6 48 3 37 -9 -31 -36 -140 -55 -298 -192 -377
-325 -71 -119 -111 -285 -111 -460 0 -48 -4 -64 -20 -78 -11 -10 -20 -29 -20
-46 0 -17 -6 -31 -16 -35 -8 -3 -12 -11 -9 -17 4 -5 -1 -17 -11 -25 -18 -15
-18 -15 0 -10 15 5 17 4 7 -8 -9 -11 -9 -15 1 -19 10 -4 10 -8 -2 -16 -8 -6
-10 -11 -4 -11 8 0 11 -21 10 -60 -1 -33 2 -60 7 -60 5 0 4 -6 -2 -14 -8 -10
-9 -16 -1 -21 5 -3 10 -15 10 -26 0 -11 5 -17 10 -14 6 3 10 -3 10 -15 0 -12
7 -28 15 -37 8 -8 13 -19 10 -24 -4 -5 -2 -9 4 -9 6 0 7 -7 4 -17 -4 -11 -3
-14 5 -9 7 4 14 -4 18 -21 9 -38 22 -53 42 -46 15 4 15 3 2 -7 -10 -8 -11 -13
-3 -16 25 -11 65 -52 59 -62 -3 -5 3 -12 14 -15 11 -3 20 -10 20 -16 0 -29
-336 136 -515 253 -168 110 -408 291 -570 431 -39 33 -88 75 -110 93 l-40 34
50 44 c93 82 314 262 344 280 17 10 31 22 31 26 0 4 5 8 10 8 6 0 23 11 38 25
15 14 28 21 30 15 2 -5 8 -10 13 -10 4 0 6 6 3 13 -5 13 67 70 91 73 6 1 15 2
20 3 6 1 3 6 -5 12 -12 8 -10 9 8 4 14 -4 22 -2 22 6 0 7 3 9 7 6 3 -4 12 -2
20 4 7 6 13 8 13 3 0 -4 7 1 15 12 11 15 15 16 15 4 1 -9 5 -5 11 8 5 13 13
20 19 17 5 -3 10 2 11 12 0 16 1 16 9 -2 8 -18 9 -18 9 5 1 20 3 22 11 10 5
-8 10 -10 10 -5 0 17 58 45 64 32 2 -7 5 -4 5 7 1 15 4 16 16 6 12 -10 15 -10
15 3 0 10 7 15 20 12 11 -2 20 1 20 7 0 6 3 8 6 5 8 -8 46 12 40 21 -2 4 6 7
19 7 13 0 21 -3 18 -7 -2 -5 1 -8 6 -8 6 0 11 8 11 18 0 14 2 15 10 2 8 -12
10 -12 10 5 0 17 2 17 10 5 5 -8 10 -10 10 -5 0 6 10 11 22 12 12 1 34 7 50
14 15 6 35 8 45 5 10 -4 14 -4 11 0 -12 12 16 33 29 22 9 -7 15 -6 19 6 3 9
10 16 16 16 5 0 6 -4 3 -10 -8 -12 1 -13 23 -1 27 14 80 24 62 11 -9 -6 -10
-10 -3 -10 6 0 15 5 18 10 3 6 13 10 21 10 8 0 13 -4 10 -8 -3 -5 8 -6 24 -4
18 3 28 9 24 16 -3 6 2 2 10 -8 10 -13 16 -15 16 -7z m40 11 c0 -5 -5 -10 -11
-10 -5 0 -7 5 -4 10 3 6 8 10 11 10 2 0 4 -4 4 -10z m1038 -137 c29 -18 62
-71 62 -100 0 -30 10 -54 21 -48 14 9 70 -25 63 -37 -5 -8 -2 -9 9 -5 10 3 17
2 17 -4 0 -6 5 -7 10 -4 6 3 10 1 10 -5 0 -7 7 -9 16 -6 8 3 12 2 9 -4 -7 -11
7 -41 21 -43 5 -1 8 -5 7 -9 -2 -4 5 -4 14 -1 10 4 14 2 10 -4 -5 -7 0 -9 13
-6 12 3 20 0 20 -6 0 -7 -6 -9 -12 -6 -7 4 -4 -1 6 -9 11 -9 25 -16 30 -16 6
0 4 5 -4 10 -8 5 -10 10 -5 10 19 0 55 -31 49 -42 -4 -6 2 -8 17 -3 17 4 20 3
10 -3 -11 -8 -6 -15 22 -33 21 -14 37 -33 38 -44 l0 -20 9 20 c5 11 9 14 9 6
1 -7 7 -11 15 -8 9 4 12 -2 10 -20 -1 -14 0 -22 3 -19 3 3 14 1 25 -5 11 -6
25 -7 32 -2 6 4 3 0 -9 -11 l-20 -19 23 7 c22 7 33 -9 10 -16 -7 -3 -5 -7 6
-11 10 -4 15 -3 11 3 -3 6 1 10 10 10 10 0 13 -5 9 -12 -5 -7 -2 -9 9 -5 12 4
14 2 10 -11 -3 -9 -2 -14 2 -9 11 9 45 -21 46 -42 0 -10 2 -12 6 -3 7 18 21
15 19 -5 0 -12 6 -17 17 -17 14 2 15 -1 6 -13 -7 -8 -8 -13 -3 -12 20 3 28 -2
16 -10 -11 -7 -11 -9 2 -14 9 -4 15 -3 15 1 -3 19 3 20 21 5 11 -10 20 -21 20
-26 0 -12 27 -37 33 -31 3 3 8 1 12 -5 3 -6 -1 -11 -9 -11 -9 0 -16 -5 -16
-11 0 -5 3 -8 8 -5 4 2 18 -2 32 -10 14 -7 19 -13 13 -14 -7 0 -13 -4 -13 -10
0 -5 7 -7 15 -4 9 4 15 0 15 -10 0 -25 -263 -239 -445 -363 -402 -272 -712
-391 -1062 -408 -88 -4 -123 -3 -123 5 0 6 5 8 10 5 6 -3 10 2 10 12 0 15 2
16 10 3 7 -11 10 -11 10 -2 0 8 5 10 12 6 8 -5 9 -2 5 9 -3 9 -3 16 1 16 4 -1
16 0 27 1 17 2 17 3 -5 10 -24 8 -24 8 7 9 17 1 35 5 38 11 3 5 0 7 -9 4 -13
-5 -13 -2 -3 20 8 17 13 21 15 11 2 -8 7 -13 12 -10 5 3 6 13 3 22 -4 11 -2
14 5 9 6 -3 16 3 22 14 6 11 17 20 26 20 35 0 180 66 250 113 244 165 370 443
341 754 -8 89 -55 248 -73 248 -6 0 -144 -130 -305 -289 -162 -159 -307 -297
-324 -307 -38 -24 -72 -24 -110 0 -51 31 -272 249 -285 281 -38 93 54 194 146
160 16 -6 64 -45 106 -87 l77 -77 48 44 c26 24 116 110 198 191 83 80 184 178
225 217 73 69 74 71 55 87 -20 16 -20 16 5 11 18 -4 33 2 55 23 16 16 39 31
50 34 28 7 76 -2 103 -20z m-238 -4 c0 -5 4 -8 9 -4 5 3 13 0 16 -6 5 -7 -1
-9 -16 -7 -22 3 -40 28 -20 28 6 0 11 -5 11 -11z m-2705 -949 c3 -5 1 -10 -4
-10 -6 0 -11 5 -11 10 0 6 2 10 4 10 3 0 8 -4 11 -10z m110 -300 c3 -5 1 -10
-4 -10 -6 0 -11 5 -11 10 0 6 2 10 4 10 3 0 8 -4 11 -10z m170 -160 c-3 -5
-12 -10 -18 -10 -7 0 -6 4 3 10 19 12 23 12 15 0z m25 -30 c8 -5 11 -10 5 -10
-5 0 -17 5 -25 10 -8 5 -10 10 -5 10 6 0 17 -5 25 -10z m1345 -10 c3 -5 2 -10
-4 -10 -5 0 -13 5 -16 10 -3 6 -2 10 4 10 5 0 13 -4 16 -10z m-343 -574 c7 4
8 2 4 -5 -9 -13 -26 -5 -25 12 0 9 2 8 6 -1 2 -6 10 -9 15 -6z m1208 -56 c0
-5 -5 -10 -11 -10 -5 0 -7 5 -4 10 3 6 8 10 11 10 2 0 4 -4 4 -10z m-965 -22
c14 -6 25 -15 25 -20 0 -7 -31 8 -59 29 -10 7 10 2 34 -9z"/>
<path d="M6070 6270 c0 -5 5 -10 11 -10 5 0 7 5 4 10 -3 6 -8 10 -11 10 -2 0
-4 -4 -4 -10z"/>
<path d="M6315 6110 c-3 -5 -1 -10 4 -10 6 0 11 5 11 10 0 6 -2 10 -4 10 -3 0
-8 -4 -11 -10z"/>
<path d="M6395 6030 c3 -5 8 -10 11 -10 2 0 4 5 4 10 0 6 -5 10 -11 10 -5 0
-7 -4 -4 -10z"/>
<path d="M3000 5291 c0 -5 9 -13 21 -16 14 -5 18 -12 14 -23 -5 -13 -3 -14 6
-5 6 6 8 16 5 22 -11 16 -46 33 -46 22z"/>
<path d="M3140 5131 c0 -5 7 -11 14 -14 10 -4 13 -1 9 9 -6 15 -23 19 -23 5z"/>
<path d="M3480 4830 c0 -5 5 -10 10 -10 6 0 10 5 10 10 0 6 -4 10 -10 10 -5 0
-10 -4 -10 -10z"/>
<path d="M5830 4460 c0 -5 5 -10 11 -10 5 0 7 5 4 10 -3 6 -8 10 -11 10 -2 0
-4 -4 -4 -10z"/>
<path d="M5690 4399 c0 -5 5 -7 10 -4 6 3 10 8 10 11 0 2 -4 4 -10 4 -5 0 -10
-5 -10 -11z"/>
<path d="M5455 4320 c3 -5 8 -10 11 -10 2 0 4 5 4 10 0 6 -5 10 -11 10 -5 0
-7 -4 -4 -10z"/>
<path d="M5380 4304 c0 -8 5 -12 10 -9 6 4 8 11 5 16 -9 14 -15 11 -15 -7z"/>
<path d="M5095 4270 c3 -5 8 -10 11 -10 2 0 4 5 4 10 0 6 -5 10 -11 10 -5 0
-7 -4 -4 -10z"/>
<path d="M4855 4260 c-3 -5 -1 -10 4 -10 6 0 11 5 11 10 0 6 -2 10 -4 10 -3 0
-8 -4 -11 -10z"/>
<path d="M4355 4055 c-21 -20 -25 -34 -25 -79 0 -48 3 -57 31 -80 50 -43 131
-28 157 29 36 79 -9 155 -93 155 -35 0 -51 -6 -70 -25z"/>
<path d="M5855 4071 c-99 -24 -203 -105 -258 -200 l-33 -56 -85 -3 c-98 -3
-84 13 -159 -177 -26 -66 -51 -119 -55 -118 -5 1 -35 67 -69 147 l-60 146
-148 0 -148 0 0 85 0 85 -90 0 -90 0 0 -85 0 -85 -45 0 -45 0 0 -80 c0 -57 4
-80 13 -82 16 -1 49 -5 65 -7 9 -1 12 -34 12 -131 0 -143 10 -182 58 -234 42
-44 98 -66 174 -66 l67 0 3 89 3 89 -44 6 c-74 10 -81 22 -81 148 l0 109 81
-3 82 -3 66 -145 c37 -80 72 -158 79 -175 11 -28 8 -39 -63 -174 -41 -80 -75
-147 -75 -150 0 -3 48 -5 107 -4 l108 2 14 33 c23 53 80 174 138 298 30 63 77
167 105 230 55 127 74 156 64 98 -10 -54 11 -162 43 -226 44 -86 102 -146 179
-184 65 -32 70 -33 192 -33 122 0 126 1 190 34 36 18 80 47 98 64 l32 31 0
-66 c0 -62 1 -65 23 -63 12 1 54 3 94 4 l72 1 3 191 c3 187 4 191 27 210 13
10 38 19 57 19 57 0 63 -21 64 -212 1 -92 4 -177 7 -188 5 -18 14 -20 94 -20
l89 0 0 118 0 117 25 -60 c32 -78 112 -158 176 -175 58 -16 184 -7 229 15 44
23 112 75 108 84 -2 3 -27 28 -55 55 l-52 48 -30 -25 c-61 -51 -167 -39 -212
24 l-20 29 208 0 208 0 13 -42 c62 -198 315 -262 481 -122 l33 27 -29 25 c-15
14 -44 41 -64 60 l-37 34 -32 -23 c-105 -78 -239 39 -186 164 23 55 51 72 116
72 43 0 63 -5 79 -19 l22 -20 60 60 60 59 -28 23 c-75 60 -212 82 -309 49 -80
-28 -172 -139 -174 -212 -1 -11 -12 9 -25 44 -27 74 -70 123 -140 159 -73 37
-178 36 -259 -4 -68 -33 -118 -88 -145 -158 -18 -45 -20 -48 -21 -21 -1 97
-69 184 -158 205 -64 15 -108 8 -157 -26 l-37 -25 2 78 c1 43 2 113 1 156 l-1
77 -90 0 -90 0 0 -362 0 -362 -69 68 -69 69 -34 -25 c-69 -52 -177 -64 -247
-29 -169 87 -160 351 14 432 62 29 122 24 199 -14 l66 -34 61 74 61 73 -24 20
c-79 67 -172 100 -277 99 -42 -1 -89 -4 -106 -8z m1342 -446 c31 -31 41 -58
20 -56 -4 1 -56 1 -117 1 -73 0 -110 4 -110 11 0 6 15 26 34 45 30 30 40 34
86 34 46 0 56 -4 87 -35z"/>
<path d="M2005 3642 l0 -427 98 -3 97 -3 0 124 0 124 36 6 c19 3 41 4 47 1 7
-3 49 -61 95 -129 l82 -125 115 0 c63 0 115 4 115 8 0 5 -40 69 -90 143 -49
73 -90 137 -90 141 0 4 11 10 25 14 33 8 91 74 117 132 29 65 29 171 1 232
-31 68 -87 125 -155 159 l-61 31 -216 0 -216 0 0 -428z m395 222 c64 -26 89
-98 55 -163 -19 -38 -30 -41 -151 -41 l-104 0 0 110 0 110 80 0 c50 0 95 -6
120 -16z"/>
<path d="M4020 3646 c0 -267 4 -426 10 -428 5 -1 48 -2 95 0 l85 3 0 425 0
424 -95 0 -95 0 0 -424z"/>
<path d="M7930 3645 l0 -426 92 3 91 3 1 112 c1 61 5 115 10 120 4 4 15 -1 23
-12 8 -11 48 -66 89 -122 l75 -103 114 0 114 0 -117 151 c-64 83 -125 161
-134 173 -17 22 -16 24 97 137 63 63 115 117 115 122 0 4 -47 7 -103 7 l-104
0 -87 -90 c-48 -49 -89 -90 -91 -90 -3 0 -5 99 -5 220 l0 220 -90 0 -90 0 0
-425z"/>
<path d="M2908 3806 c-98 -26 -180 -109 -214 -215 -79 -250 189 -471 428 -353
35 17 74 42 86 54 l21 24 -59 54 -59 55 -30 -27 c-38 -34 -91 -45 -132 -27
-36 14 -89 56 -89 70 0 5 91 9 211 9 l212 0 -6 66 c-13 133 -93 247 -203 287
-57 20 -100 21 -166 3z m166 -188 l41 -43 -124 -3 c-68 -1 -126 -1 -128 2 -9
8 30 57 56 71 14 8 46 14 70 15 38 0 48 -5 85 -42z"/>
<path d="M3515 3811 c-112 -27 -184 -101 -211 -217 -21 -93 -14 -164 25 -241
42 -84 98 -125 193 -144 72 -13 135 3 187 48 l41 35 0 -41 0 -41 90 0 90 0 0
300 0 300 -90 0 c-89 0 -90 0 -90 -25 0 -29 -7 -31 -31 -9 -41 37 -131 52
-204 35z m143 -172 c45 -16 82 -75 82 -132 0 -40 -5 -53 -34 -84 -30 -33 -39
-37 -93 -41 -52 -4 -62 -1 -90 22 -73 61 -57 187 29 229 39 19 64 21 106 6z"/>
<path d="M4330 3515 l-1 -296 93 3 93 3 0 290 0 290 -92 3 -92 3 -1 -296z"/>
</g>
</svg>
